<svg width="141" height="110" viewBox="0 0 141 110" fill="none" xmlns="http://www.w3.org/2000/svg">
    <path
        d="M80.5224 55.6464C95.8888 55.6464 108.346 43.1895 108.346 27.8232C108.346 12.4569 95.8888 0 80.5224 0C65.1561 0 52.6992 12.4569 52.6992 27.8232C52.6992 43.1895 65.1561 55.6464 80.5224 55.6464Z"
        fill="#828282" />
    <path
        d="M136.787 48.7443C138.634 37.7597 114.102 24.4774 81.9933 19.0774C49.8843 13.6775 22.3573 18.2048 20.51 29.1894C18.6626 40.1741 43.1945 53.4564 75.3035 58.8563C107.412 64.2562 134.94 59.729 136.787 48.7443Z"
        fill="#828282" />
    <path
        d="M76.1212 26.3255C76.3037 23.7333 72.9789 21.3874 68.695 21.0857C64.4111 20.7841 60.7904 22.6409 60.6078 25.2331C60.4253 27.8254 63.7501 30.1713 68.034 30.4729C72.3179 30.7746 75.9386 28.9177 76.1212 26.3255Z"
        fill="#BDBDBD" />
    <path
        d="M100.158 32.0398C100.878 29.543 98.1171 26.554 93.9908 25.3635C89.8646 24.1731 85.9358 25.2321 85.2154 27.7289C84.4951 30.2257 87.2561 33.2148 91.3823 34.4052C95.5085 35.5956 99.4374 34.5366 100.158 32.0398Z"
        fill="#BDBDBD" />
    <path
        d="M44.3549 34.3489C48.6364 34.0153 51.9436 31.6446 51.7418 29.0539C51.54 26.4631 47.9055 24.6333 43.624 24.9668C39.3424 25.3004 36.0352 27.671 36.237 30.2618C36.4389 32.8526 40.0734 34.6824 44.3549 34.3489Z"
        fill="#BDBDBD" />
    <path
        d="M121.397 45.2994C122.609 43.0009 120.512 39.5135 116.714 37.5101C112.915 35.5068 108.853 35.7461 107.641 38.0446C106.429 40.3432 108.525 43.8306 112.324 45.8339C116.122 47.8373 120.184 47.598 121.397 45.2994Z"
        fill="#BDBDBD" />
    <path d="M104.939 49.6718L50.3522 40.4922L20.1729 106.518L110.523 107.962L104.939 49.6718Z"
        fill="white" fill-opacity="0.1" />
    <path
        d="M53.989 89.2567C40.0935 91.5369 27.3279 98.3071 17.6455 108.531H111.484C104.207 100.862 95.1603 95.0948 85.1366 91.7345C75.1128 88.3741 64.4179 87.5233 53.989 89.2567Z"
        fill="#BDBDBD" />
    <path
        d="M86.0164 72.0382C80.6594 66.755 73.498 63.6999 65.977 63.4893C58.3945 63.0774 50.9425 65.5873 45.1543 70.5027C44.9485 70.6785 44.7801 70.894 44.6592 71.1362C44.5382 71.3784 44.4672 71.6424 44.4502 71.9126C44.4333 72.1828 44.4709 72.4536 44.5606 72.709C44.6504 72.9644 44.7906 73.1992 44.9729 73.3993C45.1551 73.5995 45.3758 73.761 45.6217 73.8742C45.8676 73.9875 46.1337 74.0502 46.4043 74.0586C46.6749 74.0669 46.9444 74.0209 47.1968 73.9231C47.4493 73.8253 47.6795 73.6778 47.8738 73.4893C52.8721 69.2749 59.2943 67.1343 65.8216 67.507C72.2999 67.6334 78.4828 70.2409 83.0952 74.7917C83.2747 74.9949 83.4932 75.1599 83.7378 75.2769C83.9823 75.3938 84.248 75.4604 84.5188 75.4725C84.7896 75.4847 85.0601 75.4423 85.3142 75.3477C85.5683 75.2532 85.8007 75.1085 85.9977 74.9222C86.1947 74.736 86.3522 74.512 86.4609 74.2636C86.5695 74.0152 86.627 73.7475 86.63 73.4765C86.6331 73.2054 86.5815 72.9364 86.4784 72.6857C86.3754 72.435 86.2229 72.2075 86.0301 72.0169L86.0164 72.0382Z"
        fill="#6D6E71" fill-opacity="0.4" />
    <path
        d="M80.2617 77.6531C76.1738 74.0927 70.9915 72.0368 65.5746 71.8265C60.1577 71.6162 54.8316 73.264 50.48 76.4967C50.0582 76.8262 49.7845 77.3098 49.7192 77.841C49.6539 78.3723 49.8023 78.9077 50.1318 79.3296C50.4613 79.7514 50.9448 80.0251 51.4761 80.0904C52.0074 80.1557 52.5428 80.0073 52.9646 79.6778C56.5638 77.0279 60.9565 75.6795 65.4225 75.8536C69.8886 76.0277 74.1629 77.7139 77.5449 80.6359C77.9421 80.9924 78.4642 81.1773 78.9973 81.1502C79.5303 81.1231 80.031 80.8863 80.39 80.4913C80.749 80.0964 80.9372 79.5755 80.9135 79.0423C80.8898 78.5091 80.6561 78.0069 80.2635 77.6454L80.2617 77.6531Z"
        fill="#6D6E71" fill-opacity="0.4" />
    <path
        d="M74.4757 83.2003C71.8918 80.8983 68.5782 79.5825 65.119 79.4849C61.6598 79.3872 58.2772 80.5139 55.5676 82.6663C55.2365 82.9183 54.9914 83.2664 54.8656 83.663C54.7398 84.0596 54.7395 84.4853 54.8647 84.8821C54.9899 85.2789 55.2345 85.6273 55.5652 85.8798C55.8958 86.1324 56.2964 86.2767 56.7121 86.293C57.183 86.3157 57.6463 86.1689 58.0183 85.8793C59.9931 84.2947 62.4667 83.4633 64.9977 83.5333C67.5288 83.6033 69.9526 84.5702 71.8368 86.2616C72.246 86.5755 72.7598 86.7211 73.2728 86.6686C73.7859 86.616 74.2594 86.3692 74.5964 85.9788C74.9334 85.5884 75.1084 85.0839 75.0855 84.5687C75.0626 84.0535 74.8435 83.5665 74.4732 83.2076L74.4757 83.2003Z"
        fill="#6D6E71" fill-opacity="0.4" />
    <path
        d="M68.0761 95.0347C68.7849 94.3904 69.2867 93.5504 69.5181 92.6209C69.7495 91.6914 69.7001 90.7142 69.3761 89.8128C69.0522 88.9114 68.4682 88.1263 67.698 87.5568C66.9278 86.9874 66.0061 86.659 65.0493 86.6134C64.0925 86.5678 63.1437 86.8069 62.3228 87.3005C61.502 87.7941 60.8459 88.5201 60.4376 89.3865C60.0293 90.253 59.8871 91.2211 60.029 92.1684C60.1709 93.1157 60.5905 93.9996 61.2348 94.7084C61.6626 95.179 62.1789 95.5608 62.7542 95.8319C63.3295 96.103 63.9526 96.2581 64.5879 96.2884C65.2232 96.3187 65.8582 96.2236 66.4567 96.0085C67.0552 95.7933 67.6055 95.4625 68.0761 95.0347Z"
        fill="#6D6E71" fill-opacity="0.4" />
    <path
        d="M86.9813 72.2472C81.6244 66.9641 74.4632 63.909 66.9423 63.6983C59.3598 63.2864 51.9078 65.7964 46.1196 70.7118C45.9138 70.8877 45.7454 71.1031 45.6245 71.3453C45.5035 71.5875 45.4325 71.8515 45.4156 72.1217C45.3986 72.3919 45.4362 72.6627 45.526 72.9181C45.6158 73.1735 45.7559 73.4083 45.9382 73.6084C46.1205 73.8086 46.3411 73.9701 46.587 74.0834C46.8329 74.1966 47.099 74.2593 47.3696 74.2677C47.6402 74.2761 47.9097 74.23 48.1622 74.1322C48.4146 74.0344 48.6448 73.8869 48.8391 73.6984C53.8374 69.484 60.2596 67.3433 66.7869 67.7159C73.2651 67.8423 79.4479 70.4496 84.0602 75.0004C84.2398 75.2034 84.4583 75.3682 84.7028 75.4849C84.9474 75.6017 85.2129 75.6681 85.4836 75.6802C85.7543 75.6923 86.0246 75.6498 86.2786 75.5552C86.5325 75.4607 86.7649 75.316 86.9618 75.1299C87.1587 74.9437 87.3161 74.7199 87.4248 74.4716C87.5334 74.2234 87.591 73.9558 87.5941 73.6849C87.5972 73.4139 87.5458 73.1451 87.443 72.8944C87.3401 72.6437 87.1878 72.4163 86.9953 72.2256L86.9813 72.2472Z"
        fill="#676767" />
    <path
        d="M81.2265 77.8636C77.1386 74.3032 71.9563 72.2473 66.5394 72.0369C61.1225 71.8266 55.7964 73.4745 51.4448 76.7072C51.023 77.0367 50.7493 77.5202 50.684 78.0515C50.6187 78.5827 50.7672 79.1181 51.0966 79.5399C51.4261 79.9618 51.9097 80.2354 52.4409 80.3007C52.9722 80.366 53.5076 80.2176 53.9294 79.8881C57.5286 77.2383 61.9213 75.8899 66.3873 76.064C70.8533 76.2381 75.1277 77.9243 78.5097 80.8462C78.706 81.0253 78.9356 81.1639 79.1855 81.2542C79.4354 81.3445 79.7006 81.3845 79.966 81.3722C80.2314 81.3598 80.4917 81.2952 80.7321 81.1821C80.9726 81.069 81.1883 80.9096 81.3671 80.7131C81.5458 80.5165 81.684 80.2866 81.7738 80.0366C81.8636 79.7865 81.9032 79.5212 81.8904 79.2558C81.8775 78.9905 81.8124 78.7302 81.6989 78.49C81.5854 78.2498 81.4256 78.0344 81.2287 77.856L81.2265 77.8636Z"
        fill="#676767" />
    <path
        d="M75.4404 83.4089C72.8565 81.107 69.543 79.7911 66.0838 79.6934C62.6247 79.5956 59.2421 80.7222 56.5324 82.8745C56.2014 83.1266 55.9562 83.4747 55.8304 83.8712C55.7046 84.2678 55.7043 84.6936 55.8295 85.0903C55.9547 85.4871 56.1994 85.8356 56.53 86.0881C56.8607 86.3406 57.2612 86.4849 57.677 86.5013C58.1479 86.524 58.6113 86.3772 58.9833 86.0876C60.9581 84.503 63.4317 83.6715 65.9627 83.7415C68.4938 83.8115 70.9176 84.7785 72.8018 86.4698C73.211 86.7838 73.7247 86.9294 74.2378 86.8768C74.7508 86.8242 75.2244 86.5775 75.5614 86.1871C75.8984 85.7967 76.0734 85.2922 76.0505 84.777C76.0275 84.2617 75.8085 83.7748 75.4382 83.4158L75.4404 83.4089Z"
        fill="#676767" />
    <path
        d="M69.041 95.2441C69.7498 94.5998 70.2516 93.7598 70.483 92.8303C70.7144 91.9008 70.665 90.9236 70.341 90.0222C70.017 89.1208 69.4329 88.3357 68.6627 87.7663C67.8926 87.1968 66.9708 86.8685 66.014 86.8229C65.0573 86.7773 64.1085 87.0164 63.2876 87.51C62.4667 88.0037 61.8107 88.7296 61.4024 89.5961C60.9941 90.4626 60.852 91.4307 60.9939 92.3779C61.1358 93.3252 61.5554 94.2092 62.1997 94.9179C62.6275 95.3886 63.1438 95.7703 63.7191 96.0414C64.2945 96.3125 64.9176 96.4676 65.5528 96.4979C66.1881 96.5282 66.8231 96.433 67.4216 96.2179C68.0201 96.0028 68.5704 95.6719 69.041 95.2441Z"
        fill="#676767" />
    <path
        d="M94.8894 104.66C95.4106 103.281 93.8658 101.42 91.439 100.502C89.0122 99.5848 86.6223 99.9598 86.1011 101.339C85.5799 102.718 87.1247 104.579 89.5515 105.496C91.9783 106.414 94.3682 106.039 94.8894 104.66Z"
        fill="#E0E0E0" />
    <path
        d="M85.3626 101.9C85.8615 100.579 88.0753 100.194 90.3926 100.967C90.2926 100.925 90.201 100.875 90.0977 100.836C87.6709 99.919 85.2809 100.293 84.7598 101.672C84.2387 103.051 85.7833 104.913 88.2098 105.83C88.3131 105.869 88.4148 105.893 88.5177 105.927C86.2683 104.973 84.8635 103.22 85.3626 101.9Z"
        fill="#E0E0E0" />
    <path
        d="M41.9896 102.895C43.5456 102.654 44.6541 101.472 44.4655 100.254C44.2769 99.0368 42.8626 98.2453 41.3066 98.4864C39.7506 98.7274 38.6422 99.9097 38.8308 101.127C39.0194 102.344 40.4336 103.136 41.9896 102.895Z"
        fill="#E0E0E0" />
    <path
        d="M39.1863 101.945C39.0182 101.696 38.9074 101.412 38.8617 101.115C38.8159 100.817 38.8365 100.513 38.9218 100.225C39.0071 99.9361 39.1551 99.6699 39.3552 99.4451C39.5553 99.2203 39.8026 99.0425 40.0794 98.9243C40.0203 98.9504 39.9587 98.968 39.9007 98.9971C39.601 99.102 39.3291 99.2739 39.1059 99.4997C38.8826 99.7255 38.7138 99.9993 38.6123 100.3C38.5109 100.601 38.4794 100.921 38.5203 101.236C38.5613 101.551 38.6735 101.853 38.8486 102.118C39.3347 102.635 39.9799 102.975 40.6816 103.084C41.3833 103.193 42.1013 103.065 42.7216 102.719C42.7798 102.69 42.8262 102.652 42.8808 102.62C42.2742 102.919 41.5874 103.015 40.922 102.894C40.2567 102.772 39.648 102.44 39.1863 101.945Z"
        fill="#E0E0E0" />
    <path
        d="M104.939 49.6705C105.807 44.509 94.2797 38.268 79.1924 35.7306C64.1051 33.1933 51.1707 35.3206 50.3027 40.482C49.4346 45.6435 60.9617 51.8845 76.049 54.4219C91.1363 56.9592 104.071 54.8319 104.939 49.6705Z"
        fill="#BDBDBD" />
    <path
        d="M0.868164 108.962C0.868164 108.41 1.31588 107.962 1.86816 107.962H134.262C134.814 107.962 135.262 108.41 135.262 108.962V109C135.262 109.552 134.814 110 134.262 110H1.86816C1.31588 110 0.868164 109.552 0.868164 109V108.962Z"
        fill="#828282" />
    <path
        d="M128.69 88.0084C128.797 87.6715 128.801 87.3101 128.7 86.9712C128.599 86.6324 128.398 86.3319 128.123 86.1091C127.84 85.8934 127.498 85.771 127.142 85.759C126.876 85.7497 126.617 85.6655 126.396 85.5159C126.176 85.3663 126.001 85.1575 125.894 84.9133C125.684 84.4089 125.339 83.972 124.897 83.6502C124.456 83.3285 123.934 83.1343 123.389 83.0889C122.845 83.0435 122.298 83.1487 121.809 83.3929C121.321 83.6371 120.908 84.0109 120.617 84.4736C120.428 84.773 120.279 85.1214 119.966 85.2956C119.572 85.5154 119.087 85.3666 118.639 85.3379C117.304 85.2533 116.041 86.6773 116.11 88.0117L128.69 88.0084Z"
        fill="#BDBDBD" />
    <path
        d="M25.9097 59.915C26.0623 59.4374 26.0673 58.9249 25.924 58.4444C25.7807 57.964 25.4957 57.538 25.1064 57.222C24.7056 56.9163 24.2195 56.7428 23.7156 56.7257C23.3377 56.7126 22.9711 56.5931 22.6581 56.381C22.345 56.1689 22.0982 55.8728 21.9459 55.5267C21.6479 54.8115 21.159 54.1919 20.5327 53.7357C19.9064 53.2795 19.1668 53.0042 18.3947 52.9399C17.6225 52.8756 16.8476 53.0246 16.1544 53.3709C15.4612 53.7171 14.8766 54.2472 14.4643 54.9032C14.1957 55.3277 13.9847 55.8216 13.541 56.0686C12.9823 56.3804 12.2941 56.1693 11.6586 56.1286C9.76665 56.0087 7.97538 58.0278 8.07369 59.9197L25.9097 59.915Z"
        fill="#BDBDBD" />
</svg>
