<svg width="42" height="43" viewBox="0 0 42 43" fill="none" xmlns="http://www.w3.org/2000/svg">
<rect opacity="0.4" x="0.0205078" y="0.804016" width="41.9795" height="42.196" rx="20.9897" fill="#111927"/>
<path d="M8.88342 11.1961L11.4448 11.6394L12.6306 25.7675C12.7255 26.9214 13.6897 27.8068 14.8472 27.8031H28.2808C29.3854 27.8055 30.3225 26.9928 30.4789 25.8993L31.6475 17.8236C31.7781 16.921 31.1513 16.0836 30.2499 15.9531C30.171 15.942 11.8561 15.9359 11.8561 15.9359" stroke="white" stroke-width="1.5" stroke-linecap="round" stroke-linejoin="round"/>
<path fill-rule="evenodd" clip-rule="evenodd" d="M14.307 32.0719C14.6776 32.0719 14.9769 32.3724 14.9769 32.7418C14.9769 33.1125 14.6776 33.4129 14.307 33.4129C13.9363 33.4129 13.6371 33.1125 13.6371 32.7418C13.6371 32.3724 13.9363 32.0719 14.307 32.0719Z" fill="white" stroke="white" stroke-width="1.5" stroke-linecap="round" stroke-linejoin="round"/>
<path fill-rule="evenodd" clip-rule="evenodd" d="M28.1978 32.0719C28.5685 32.0719 28.869 32.3724 28.869 32.7418C28.869 33.1125 28.5685 33.4129 28.1978 33.4129C27.8272 33.4129 27.528 33.1125 27.528 32.7418C27.528 32.3724 27.8272 32.0719 28.1978 32.0719Z" fill="white" stroke="white" stroke-width="1.5" stroke-linecap="round" stroke-linejoin="round"/>
<path d="M15.9727 23.4438H19.3874" stroke="white" stroke-width="1.5" stroke-linecap="round" stroke-linejoin="round"/>
</svg>
