<svg width="30" height="30" viewBox="0 0 30 30" fill="none" xmlns="http://www.w3.org/2000/svg">
<path opacity="0.4" d="M14.989 23.2771L6.87431 27.3304C6.26151 27.663 5.4971 27.4409 5.15436 26.8306C5.05426 26.6388 5.00132 26.4255 5 26.2088V17.1362C5 18.0357 5.50717 18.5909 6.84123 19.2128L14.989 23.2771Z" fill="#4E49D6"/>
<path fill-rule="evenodd" clip-rule="evenodd" d="M11.1191 2.5H18.8368C22.2216 2.5 24.9669 3.83256 25 7.24171V26.2086C24.9986 26.4218 24.9457 26.6314 24.8456 26.8193C24.6849 27.1258 24.4074 27.3534 24.0768 27.4497C23.7462 27.546 23.391 27.5029 23.0926 27.3301L14.989 23.2769L6.84123 19.2126C5.50717 18.5907 5 18.0355 5 17.136V7.24171C5 3.83256 7.74531 2.5 11.1191 2.5ZM10.2811 12.0278H19.6858C20.2277 12.0278 20.667 11.5854 20.667 11.0395C20.667 10.4937 20.2277 10.0512 19.6858 10.0512H10.2811C9.73921 10.0512 9.29989 10.4937 9.29989 11.0395C9.29989 11.5854 9.73921 12.0278 10.2811 12.0278Z" fill="#4E49D6"/>
</svg>
