<svg width="30" height="31" viewBox="0 0 30 31" fill="none" xmlns="http://www.w3.org/2000/svg">
<path d="M11.4185 25.9847V22.1626C11.4185 21.1869 12.2152 20.3959 13.198 20.3959H16.7908C17.2627 20.3959 17.7154 20.5821 18.0491 20.9134C18.3828 21.2447 18.5703 21.694 18.5703 22.1626V25.9847C18.5674 26.3904 18.7276 26.7804 19.0155 27.0683C19.3033 27.3562 19.6951 27.5181 20.1037 27.5181H22.5548C23.6995 27.521 24.7984 27.0716 25.609 26.2691C26.4195 25.4665 26.875 24.3768 26.875 23.2403V12.3516C26.875 11.4336 26.4651 10.5629 25.7558 9.9739L17.4175 3.3629C15.9671 2.20377 13.8889 2.24119 12.4817 3.45179L4.33377 9.9739C3.59093 10.5455 3.14694 11.4189 3.125 12.3516V23.2292C3.125 25.5979 5.05923 27.5181 7.44522 27.5181H9.84036C10.689 27.5181 11.3787 26.8383 11.3849 25.9959L11.4185 25.9847Z" fill="#4E49D6"/>
</svg>
