<svg width="30" height="31" viewBox="0 0 30 31" fill="none" xmlns="http://www.w3.org/2000/svg">
<path fill-rule="evenodd" clip-rule="evenodd" d="M3.75 8.14307C3.75 4.86155 3.78514 3.76807 8.125 3.76807C12.4649 3.76807 12.5 4.86155 12.5 8.14307C12.5 11.4246 12.5138 12.5181 8.125 12.5181C3.73616 12.5181 3.75 11.4246 3.75 8.14307Z" stroke="#6C737F" stroke-width="1.5" stroke-linecap="round" stroke-linejoin="round"/>
<path fill-rule="evenodd" clip-rule="evenodd" d="M17.5 8.14307C17.5 4.86155 17.5351 3.76807 21.875 3.76807C26.2149 3.76807 26.25 4.86155 26.25 8.14307C26.25 11.4246 26.2638 12.5181 21.875 12.5181C17.4862 12.5181 17.5 11.4246 17.5 8.14307Z" stroke="#6C737F" stroke-width="1.5" stroke-linecap="round" stroke-linejoin="round"/>
<path fill-rule="evenodd" clip-rule="evenodd" d="M3.75 21.8931C3.75 18.6116 3.78514 17.5181 8.125 17.5181C12.4649 17.5181 12.5 18.6116 12.5 21.8931C12.5 25.1746 12.5138 26.2681 8.125 26.2681C3.73616 26.2681 3.75 25.1746 3.75 21.8931Z" stroke="#6C737F" stroke-width="1.5" stroke-linecap="round" stroke-linejoin="round"/>
<path fill-rule="evenodd" clip-rule="evenodd" d="M17.5 21.8931C17.5 18.6116 17.5351 17.5181 21.875 17.5181C26.2149 17.5181 26.25 18.6116 26.25 21.8931C26.25 25.1746 26.2638 26.2681 21.875 26.2681C17.4862 26.2681 17.5 25.1746 17.5 21.8931Z" stroke="#6C737F" stroke-width="1.5" stroke-linecap="round" stroke-linejoin="round"/>
</svg>
