<svg width="18" height="17" viewBox="0 0 18 17" fill="none" xmlns="http://www.w3.org/2000/svg">
<path fill-rule="evenodd" clip-rule="evenodd" d="M1.89334 8.38541C1.89334 12.2427 4.69 14.8708 7.83134 15.4144C7.91679 15.4293 7.99848 15.4608 8.07176 15.5071C8.14504 15.5535 8.20847 15.6139 8.25842 15.6848C8.30837 15.7557 8.34386 15.8357 8.36288 15.9203C8.3819 16.0049 8.38407 16.0925 8.36925 16.1779C8.35444 16.2634 8.32295 16.3451 8.27656 16.4184C8.23018 16.4916 8.16982 16.5551 8.09892 16.605C8.02803 16.655 7.94799 16.6905 7.86337 16.7095C7.77876 16.7285 7.69123 16.7307 7.60578 16.7158C3.91702 16.0772 0.572937 12.9675 0.572937 8.38541C0.572937 6.43775 1.45869 4.907 2.49271 3.74373C3.23401 2.90993 4.08176 2.23199 4.7635 1.71371H2.69039C2.52235 1.71371 2.3612 1.64696 2.24238 1.52814C2.12356 1.40932 2.0568 1.24816 2.0568 1.08012C2.0568 0.912084 2.12356 0.750928 2.24238 0.632107C2.3612 0.513286 2.52235 0.446533 2.69039 0.446533H6.49193C6.65997 0.446533 6.82112 0.513286 6.93994 0.632107C7.05877 0.750928 7.12552 0.912084 7.12552 1.08012V4.88166C7.12552 5.0497 7.05877 5.21085 6.93994 5.32967C6.82112 5.4485 6.65997 5.51525 6.49193 5.51525C6.32389 5.51525 6.16273 5.4485 6.04391 5.32967C5.92509 5.21085 5.85834 5.0497 5.85834 4.88166V2.54245L5.85707 2.54498C5.13225 3.08987 4.24776 3.75767 3.48111 4.62062C2.57508 5.63943 1.89334 6.8724 1.89334 8.38541ZM15.9692 8.89988C15.9692 5.08314 13.2321 2.47149 10.1313 1.88858C10.0448 1.87392 9.96221 1.84219 9.88818 1.79525C9.81414 1.74831 9.7502 1.6871 9.70008 1.61518C9.64996 1.54327 9.61466 1.46209 9.59624 1.37639C9.57782 1.29069 9.57666 1.20218 9.59281 1.11602C9.60897 1.02986 9.64212 0.947784 9.69033 0.874574C9.73854 0.801365 9.80085 0.73849 9.87362 0.689618C9.94639 0.640745 10.0282 0.606854 10.1142 0.58992C10.2002 0.572987 10.2887 0.573351 10.3746 0.590992C14.0164 1.27527 17.2896 4.36719 17.2896 8.89988C17.2896 10.8475 16.4038 12.377 15.3698 13.5416C14.6285 14.3754 13.7807 15.0533 13.099 15.5716H15.1721C15.3401 15.5716 15.5013 15.6383 15.6201 15.7572C15.7389 15.876 15.8057 16.0371 15.8057 16.2052C15.8057 16.3732 15.7389 16.5344 15.6201 16.6532C15.5013 16.772 15.3401 16.8388 15.1721 16.8388H11.3706C11.2025 16.8388 11.0414 16.772 10.9226 16.6532C10.8037 16.5344 10.737 16.3732 10.737 16.2052V12.4036C10.737 12.2356 10.8037 12.0744 10.9226 11.9556C11.0414 11.8368 11.2025 11.77 11.3706 11.77C11.5386 11.77 11.6998 11.8368 11.8186 11.9556C11.9374 12.0744 12.0042 12.2356 12.0042 12.4036V14.7416H12.0067C12.7303 14.1942 13.616 13.5276 14.3814 12.6634C15.2874 11.6459 15.9692 10.4142 15.9692 8.89988Z" fill="#6C737F"/>
</svg>
