<svg width="28" height="27" viewBox="0 0 28 27" fill="none" xmlns="http://www.w3.org/2000/svg">
<path d="M1.24416 0.995667L4.09011 1.48824L5.40774 17.1861C5.51309 18.4682 6.58443 19.452 7.87058 19.4479H22.7968C24.0241 19.4506 25.0654 18.5476 25.2391 17.3325L26.5376 8.35958C26.6826 7.35665 25.9862 6.42624 24.9846 6.28121C24.8971 6.2689 4.54711 6.26205 4.54711 6.26205" stroke="#4E49D6" stroke-width="1.5" stroke-linecap="round" stroke-linejoin="round"/>
<path fill-rule="evenodd" clip-rule="evenodd" d="M7.27036 24.191C7.6822 24.191 8.01469 24.5248 8.01469 24.9353C8.01469 25.3471 7.6822 25.681 7.27036 25.681C6.85852 25.681 6.52603 25.3471 6.52603 24.9353C6.52603 24.5248 6.85852 24.191 7.27036 24.191Z" fill="#4E49D6" stroke="#4E49D6" stroke-width="1.5" stroke-linecap="round" stroke-linejoin="round"/>
<path fill-rule="evenodd" clip-rule="evenodd" d="M22.7046 24.191C23.1164 24.191 23.4503 24.5248 23.4503 24.9353C23.4503 25.3471 23.1164 25.681 22.7046 25.681C22.2927 25.681 21.9603 25.3471 21.9603 24.9353C21.9603 24.5248 22.2927 24.191 22.7046 24.191Z" fill="#4E49D6" stroke="#4E49D6" stroke-width="1.5" stroke-linecap="round" stroke-linejoin="round"/>
<path d="M9.12108 14.6042H12.9152" stroke="#4E49D6" stroke-width="1.5" stroke-linecap="round" stroke-linejoin="round"/>
</svg>
