<svg width="20" height="19" viewBox="0 0 20 19" fill="none" xmlns="http://www.w3.org/2000/svg">
<path fill-rule="evenodd" clip-rule="evenodd" d="M16.707 9C16.707 12.866 13.573 16 9.70703 16C5.84104 16 2.70703 12.866 2.70703 9C2.70703 5.13401 5.84104 2 9.70703 2C13.573 2 16.707 5.13401 16.707 9ZM16.7389 14.6177C17.9706 13.078 18.707 11.125 18.707 9C18.707 4.02944 14.6776 0 9.70703 0C4.73647 0 0.707031 4.02944 0.707031 9C0.707031 13.9706 4.73647 18 9.70703 18C11.832 18 13.785 17.2635 15.3247 16.0319L17.9999 18.7071C18.3904 19.0976 19.0236 19.0976 19.4141 18.7071C19.8047 18.3166 19.8047 17.6834 19.4141 17.2929L16.7389 14.6177Z" fill="#9DA4AE"/>
</svg>
