<svg width="30" height="31" viewBox="0 0 30 31" fill="none" xmlns="http://www.w3.org/2000/svg">
<path opacity="0.4" d="M17.1881 12.2712V9.74644C16.6925 9.74644 16.2814 9.34717 16.2814 8.86569V5.85941C16.2814 5.45896 15.955 5.14307 15.544 5.14307H7.23888C4.62766 5.14307 2.5 7.20871 2.5 9.74644V12.7868C2.5 13.0228 2.59671 13.2459 2.76596 13.4103C2.9352 13.5736 3.16489 13.6675 3.40667 13.6675C4.32544 13.6675 5.0266 14.3017 5.0266 15.1354C5.0266 16.0056 4.31335 16.6985 3.41876 16.709C2.92311 16.709 2.5 17.0496 2.5 17.5428V20.5503C2.5 23.0868 4.62766 25.1419 7.22679 25.1419H15.544C15.955 25.1419 16.2814 24.8236 16.2814 24.4256V21.8878C16.2814 21.3958 16.6925 21.0071 17.1881 21.0071V18.7301C16.6925 18.7301 16.2814 18.3296 16.2814 17.8493V13.152C16.2814 12.6705 16.6925 12.2712 17.1881 12.2712Z" fill="#4E49D6"/>
<path d="M24.9734 15.1361C24.9734 16.0051 25.6987 16.698 26.5812 16.7097C27.0769 16.7097 27.5 17.0503 27.5 17.5318V20.5498C27.5 23.0875 25.3844 25.1426 22.7732 25.1426H18.8322C18.4333 25.1426 18.0948 24.8243 18.0948 24.4251V21.8885C18.0948 21.3953 17.6958 21.0078 17.1881 21.0078V18.7307C17.6958 18.7307 18.0948 18.3303 18.0948 17.85V13.1527C18.0948 12.67 17.6958 12.2719 17.1881 12.2719V9.74595C17.6958 9.74595 18.0948 9.34668 18.0948 8.8652V5.86009C18.0948 5.45965 18.4333 5.14258 18.8322 5.14258H22.7732C25.3844 5.14258 27.5 7.19765 27.5 9.73421V12.6935C27.5 12.9284 27.4033 13.1527 27.234 13.3159C27.0648 13.4803 26.8351 13.5743 26.5933 13.5743C25.6987 13.5743 24.9734 14.28 24.9734 15.1361Z" fill="#4E49D6"/>
</svg>
