<svg width="30" height="30" viewBox="0 0 30 30" fill="none" xmlns="http://www.w3.org/2000/svg">
<path d="M17.3121 5.31299V8.33799" stroke="#6C737F" stroke-width="1.5" stroke-linecap="round" stroke-linejoin="round"/>
<path d="M17.3121 22.2002V24.7302" stroke="#6C737F" stroke-width="1.5" stroke-linecap="round" stroke-linejoin="round"/>
<path d="M17.3121 17.9056V11.8794" stroke="#6C737F" stroke-width="1.5" stroke-linecap="round" stroke-linejoin="round"/>
<path fill-rule="evenodd" clip-rule="evenodd" d="M23.3777 25C25.6552 25 27.5 23.1782 27.5 20.9289V17.6883C25.9929 17.6883 24.7792 16.4896 24.7792 15.0013C24.7792 13.5129 25.9929 12.313 27.5 12.313L27.4987 9.07107C27.4987 6.82181 25.6526 5 23.3764 5H6.62364C4.34736 5 2.5013 6.82181 2.5013 9.07107L2.5 12.4186C4.00709 12.4186 5.22085 13.5129 5.22085 15.0013C5.22085 16.4896 4.00709 17.6883 2.5 17.6883V20.9289C2.5 23.1782 4.34475 25 6.62234 25H23.3777Z" stroke="#6C737F" stroke-width="1.5" stroke-linecap="round" stroke-linejoin="round"/>
</svg>
